<svg xmlns="http://www.w3.org/2000/svg" width="178.22" height="34.416" viewBox="0 0 178.22 34.416">
  <g id="header-logo.f41bd9de" transform="translate(-66.017 -7.996)">
    <path id="Path_67834" data-name="Path 67834" d="M71.915,18H67.442l-1.425-5.292H81.76L83.137,18H77.614V35.956h-5.7ZM93.7,35.463l-.77.3a9.963,9.963,0,0,1-3.637.672,10.09,10.09,0,0,1-4.735-1.163,9.31,9.31,0,0,1-3.539-3.211,8.65,8.65,0,0,1-.556-8.176,8.9,8.9,0,0,1,2.113-2.851,9.17,9.17,0,0,1,3.08-1.851,10.093,10.093,0,0,1,3.637-.672,10.445,10.445,0,0,1,3.637.656,9.156,9.156,0,0,1,3.08,1.867,8.95,8.95,0,0,1,2.13,2.851,8.36,8.36,0,0,1,.77,3.572L98.9,35.992,93.7,35.944ZM85.526,25.355a3.9,3.9,0,0,0-.606,2.113,4.054,4.054,0,0,0,1.3,3,4.413,4.413,0,0,0,6.144,0,3.98,3.98,0,0,0,1.3-3,3.9,3.9,0,0,0-.606-2.113,4.445,4.445,0,0,0-7.552,0ZM99.73,27.4a8.14,8.14,0,0,1,1.327-4.5,9.14,9.14,0,0,1,3.54-3.212,10.13,10.13,0,0,1,8.372-.507,9.36,9.36,0,0,1,3.1,1.884,9.08,9.08,0,0,1,2.13,2.884,8.639,8.639,0,0,1-2.13,9.993,9.29,9.29,0,0,1-3.1,1.885,10.654,10.654,0,0,1-7.26,0l-.376-.164-.377-.164v6.915L99.729,42.4Zm5.227.115a3.77,3.77,0,0,0,.606,2.1,4.49,4.49,0,0,0,1.622,1.54,4.243,4.243,0,0,0,2.146.573,4.33,4.33,0,0,0,2.162-.573,4.5,4.5,0,0,0,1.623-1.54,3.83,3.83,0,0,0,.606-2.1,4.08,4.08,0,0,0-1.31-3.015,4.37,4.37,0,0,0-6.144,0,4.04,4.04,0,0,0-1.313,3.015Zm36.62,4.308h-9.3L130,35.959h-5.882l12.8-23.575L149.73,35.95h-5.882Zm-2.36-4.293L136.939,23.4l-2.294,4.128ZM155.565,18h-4.473l-1.425-5.292h15.746L166.8,18h-5.52V35.956h-5.7ZM172.8,23.553a2.04,2.04,0,0,0-1.065-.31h-.294q-2,.082-2,2.785v9.93H164.2v-9.93q0-7.16,7.242-7.52h.294a8.84,8.84,0,0,1,1.065.1Zm14.826,11.9-.77.3a9.963,9.963,0,0,1-3.637.672,10.09,10.09,0,0,1-4.736-1.163,9.31,9.31,0,0,1-3.538-3.211,8.66,8.66,0,0,1-.557-8.176,8.93,8.93,0,0,1,2.113-2.851,9.18,9.18,0,0,1,3.08-1.851,10.09,10.09,0,0,1,3.638-.672,10.39,10.39,0,0,1,3.637.656,9.17,9.17,0,0,1,3.08,1.867,8.97,8.97,0,0,1,2.13,2.85,8.36,8.36,0,0,1,.77,3.572l-.017,8.535-5.193-.048Zm-8.175-10.108a3.9,3.9,0,0,0-.607,2.113,4.054,4.054,0,0,0,1.3,3,4.413,4.413,0,0,0,6.144,0,4.02,4.02,0,0,0,1.31-3,3.9,3.9,0,0,0-.606-2.113,4.445,4.445,0,0,0-7.551,0Zm33.42,2.245a8.19,8.19,0,0,1-1.327,4.505,9.13,9.13,0,0,1-3.539,3.211,10.13,10.13,0,0,1-8.37.508,9.35,9.35,0,0,1-3.1-1.885,9.053,9.053,0,0,1-2.13-2.883,8.637,8.637,0,0,1,2.131-9.994,9.5,9.5,0,0,1,3.1-1.884,10.62,10.62,0,0,1,7.258,0l.377.163.377.164V12.58l5.227.017Zm-5.227-.115a3.81,3.81,0,0,0-.606-2.1,4.453,4.453,0,0,0-1.622-1.54,4.243,4.243,0,0,0-2.146-.573,4.33,4.33,0,0,0-2.162.573,4.47,4.47,0,0,0-1.622,1.541,3.813,3.813,0,0,0-.607,2.1,4.04,4.04,0,0,0,1.31,3.014,4.37,4.37,0,0,0,6.144,0,3.989,3.989,0,0,0,1.3-3.013Zm11.125-11.648a2.82,2.82,0,0,1-.983.982,2.72,2.72,0,0,1-2.735.017,2.8,2.8,0,0,1-1.36-2.392,2.71,2.71,0,0,1,.36-1.376,2.9,2.9,0,0,1,1-1,2.59,2.59,0,0,1,1.36-.36,2.69,2.69,0,0,1,1.376.361,2.77,2.77,0,0,1,.983,1,2.844,2.844,0,0,1,0,2.77Zm.344,3.358V35.978h-5.226V19.2ZM237.625,23.9a8.59,8.59,0,0,1,.737,3.54v.147a1.094,1.094,0,0,1-.016.18l-.033.28h-2.028v.033H225.011a4.25,4.25,0,0,0,4.146,3.621,4.03,4.03,0,0,0,2.949-1.245l.033-.033.05-.066.048-.048.033-.05,2.818,4.03a10.136,10.136,0,0,1-2.458,1.5,9.42,9.42,0,0,1-3.473.655,9.2,9.2,0,0,1-4.539-1.163,8.886,8.886,0,0,1-3.932-11.371,8.83,8.83,0,0,1,2.031-2.851,9,9,0,0,1,2.949-1.884,9.56,9.56,0,0,1,3.49-.656,9.42,9.42,0,0,1,3.473.656,9.1,9.1,0,0,1,2.966,1.867,8.55,8.55,0,0,1,2.031,2.868Zm-8.47-.655a4.07,4.07,0,0,0-2.064.556,4.9,4.9,0,0,0-1.147,1.016h6.423A4.856,4.856,0,0,0,231.22,23.8a4.07,4.07,0,0,0-2.065-.553Zm8.674-14.828a1.494,1.494,0,0,1-.01.19.471.471,0,0,1-.03.127.17.17,0,0,1-.048.072.1.1,0,0,1-.063.023h-1.25v4.022a.117.117,0,0,1-.025.07.18.18,0,0,1-.083.05.8.8,0,0,1-.157.031,2.68,2.68,0,0,1-.489,0,.837.837,0,0,1-.157-.03.18.18,0,0,1-.083-.05.111.111,0,0,1-.025-.07V8.83h-1.253a.1.1,0,0,1-.066-.023.189.189,0,0,1-.046-.072.547.547,0,0,1-.03-.127,1.579,1.579,0,0,1-.01-.191,1.662,1.662,0,0,1,.01-.2.49.49,0,0,1,.029-.13.181.181,0,0,1,.046-.07.076.076,0,0,1,.066-.02h3.517a.1.1,0,0,1,.063.021.143.143,0,0,1,.048.07.52.52,0,0,1,.029.13,1.485,1.485,0,0,1,.014.2Zm6.408,4.433a.12.12,0,0,1-.021.07.153.153,0,0,1-.077.05.68.68,0,0,1-.148.03,1.855,1.855,0,0,1-.236.01h-.23a.68.68,0,0,1-.146-.031.16.16,0,0,1-.077-.05.111.111,0,0,1-.023-.07V8.8h-.007l-1.446,4.057a.191.191,0,0,1-.05.083.24.24,0,0,1-.094.052.62.62,0,0,1-.152.025q-.094.006-.224.006a2.18,2.18,0,0,1-.224-.009.727.727,0,0,1-.153-.03.28.28,0,0,1-.094-.052.143.143,0,0,1-.047-.074l-1.4-4.057h-.007v4.06a.13.13,0,0,1-.02.07.147.147,0,0,1-.08.05.68.68,0,0,1-.148.03,1.81,1.81,0,0,1-.233.01l-.232-.01a.826.826,0,0,1-.148-.03.167.167,0,0,1-.077-.05.122.122,0,0,1-.02-.07V8.4a.41.41,0,0,1,.1-.3A.376.376,0,0,1,238.8,8h.664a1.33,1.33,0,0,1,.3.03.594.594,0,0,1,.22.1.54.54,0,0,1,.154.177,1.331,1.331,0,0,1,.108.272l1.08,2.973h.015L242.46,8.6c.028-.1.065-.186.1-.274a.6.6,0,0,1,.14-.18.46.46,0,0,1,.187-.1.96.96,0,0,1,.251-.029h.682a.53.53,0,0,1,.179.027.246.246,0,0,1,.124.08.34.34,0,0,1,.073.127.56.56,0,0,1,.025.172Z" fill="#393939"/>
  </g>
</svg>
