<svg id="header-logo.f41bd9de" xmlns="http://www.w3.org/2000/svg" xmlns:xlink="http://www.w3.org/1999/xlink" width="50" height="50" viewBox="0 0 50 50">
  <defs>
    <linearGradient id="linear-gradient" y1="0.5" x2="1" y2="0.5" gradientUnits="objectBoundingBox">
      <stop offset="0" stop-color="#f7941d"/>
      <stop offset="1" stop-color="#ef4136"/>
    </linearGradient>
  </defs>
  <rect id="Rectangle_2420" data-name="Rectangle 2420" width="50" height="50" rx="4" fill="url(#linear-gradient)"/>
  <g id="Group_7184" data-name="Group 7184">
    <path id="Path_67831" data-name="Path 67831" d="M8.224,26.12c.462-.03.918-.112,1.374-.18l7.268-1.065a1.883,1.883,0,0,0,1.772-1.7c.14-.6.2-1.215.288-1.825q.614-4.2,1.22-8.412l.9-6.193a.346.346,0,0,0-.052-.326h-.17a17.49,17.49,0,0,0-4.86,1.244,10.4,10.4,0,0,0-5.283,4.8,16.48,16.48,0,0,0-1.61,5.643l-.44,5.1a8.39,8.39,0,0,1-.666,2.883c.083.08.173.048.26.043ZM29.314,8.953l1.8,12.347a17.935,17.935,0,0,0,.367,2.184,1.83,1.83,0,0,0,1.635,1.376l8.638,1.262c.1.013.194.037.275-.045a6.37,6.37,0,0,1-.5-1.64c-.228-1.338-.276-2.693-.38-4.043a28.62,28.62,0,0,0-.734-5.035,11.565,11.565,0,0,0-2.847-5.327A11,11,0,0,0,33.94,7.62a17.074,17.074,0,0,0-4.913-1.214c-.086.093-.047.2-.032.3q.16,1.127.32,2.247Zm2.735,21.78h-.073a1.076,1.076,0,0,0-.777.32,1.094,1.094,0,0,0-.323.775v.8a.113.113,0,0,1-.05.1.108.108,0,0,1-.165-.1v-2.8a1.093,1.093,0,1,0-2.185,0v2.408a.113.113,0,0,1-.05.1.108.108,0,0,1-.165-.1V28.621a1.093,1.093,0,1,0-2.185,0v3.612a.113.113,0,0,1-.05.1.108.108,0,0,1-.165-.1V23.806a1.093,1.093,0,1,0-2.184,0v9.235A4.92,4.92,0,0,1,23.46,34.6a.91.91,0,0,1-.648.6.89.89,0,0,1-.831-.217,6.626,6.626,0,0,1-.9-1.084c-.748-1.125-2.333-2.76-3.135-2.76a1.093,1.093,0,0,0-.953.577.74.74,0,0,0,.253.842,23.09,23.09,0,0,1,3.226,5.655,8.693,8.693,0,0,0,2.46,3.32c.647.46.74,1.954.75,2.883h7.8v-2.18a.88.88,0,0,1,.272-.646,5.07,5.07,0,0,0,1.33-3.334V31.9a1.15,1.15,0,0,0-1.018-1.164ZM23.672,44.927v.2a.688.688,0,0,0,.693.693h6.4a.682.682,0,0,0,.692-.693v-.2Z" fill="#fff"/>
    <path id="Path_67832" data-name="Path 67832" d="M44.154,27.386a.468.468,0,0,0-.445-.323,4.29,4.29,0,0,1-.795-.1c-.235-.068-5.88-.583-12.625-.8a.61.61,0,0,0,.01-.3c-.033-.278-.054-.556-.077-.834l-.272-3.066-.26-2.845-.275-3.09-.492-5.543L28.657,7.37A3.67,3.67,0,0,0,28.5,6.333c-.023-.2-.05-.407-.066-.61a.464.464,0,0,0-.285-.42,3.005,3.005,0,0,0-.763-.238,14.153,14.153,0,0,0-4.28-.078,4.081,4.081,0,0,0-1.176.286.511.511,0,0,0-.363.5,1.191,1.191,0,0,1-.085.575.622.622,0,0,0-.068.284c-.056.827-.14,1.652-.212,2.477l-.37,4.144L20.47,17.3q-.157,1.753-.32,3.506-.22,2.415-.43,4.83a1.26,1.26,0,0,0-.009.537c-6.748.206-12.4.72-12.648.792-.24.042-.48.072-.722.1a.524.524,0,0,0-.526.4A3.118,3.118,0,0,0,5.773,29.4c.117.42.23.485.664.485h16.3v-3.1a3.615,3.615,0,1,1,4.313-.2h.116a2,2,0,0,1,1.864,1.278,1.957,1.957,0,0,1,.538-.074,2.01,2.01,0,0,1,2.008,2.024v.022a1.99,1.99,0,0,1,.4-.04h.132a2.07,2.07,0,0,1,.409.084h11.16a.46.46,0,0,0,.488-.323,3,3,0,0,0-.013-2.164Z" fill="#fff"/>
    <path id="Path_67833" data-name="Path 67833" d="M26.364,25.6v.972a3.2,3.2,0,1,0-3.2,0V25.6a2.4,2.4,0,1,1,3.2,0Z" fill="#fff"/>
  </g>
</svg>
